<?xml version="1.0" encoding="utf-8"?>
<svg version="1.1" xmlns:xlink="http://www.w3.org/1999/xlink" width="16px" height="18px" xmlns="http://www.w3.org/2000/svg">
  <g transform="matrix(1 0 0 1 -119 -92 )">
    <path d="M 15.7250859106529 1.08216432865731  C 15.9083619702176 1.20240480961924  16 1.34068136272545  16 1.49699398797595  C 16 1.65330661322645  15.9083619702176 1.79158316633266  15.7250859106529 1.91182364729459  L 4.92096219931272 9  L 15.7250859106529 16.0881763527054  C 15.9083619702176 16.2084168336673  16 16.3466933867735  16 16.503006012024  C 16 16.6593186372745  15.9083619702176 16.7975951903808  15.7250859106529 16.9178356713427  L 14.3505154639175 17.8196392785571  C 14.1672394043528 17.939879759519  13.9564719358534 18  13.7182130584192 18  C 13.4799541809851 18  13.2691867124857 17.939879759519  13.085910652921 17.8196392785571  L 0.274914089347079 9.41482965931864  C 0.0916380297823597 9.29458917835671  0 9.1563126252505  0 9  C 0 8.8436873747495  0.0916380297823597 8.70541082164329  0.274914089347079 8.58517034068136  L 13.085910652921 0.180360721442886  C 13.2691867124857 0.0601202404809613  13.4799541809851 0  13.7182130584192 0  C 13.9564719358534 0  14.1672394043528 0.0601202404809613  14.3505154639175 0.180360721442886  L 15.7250859106529 1.08216432865731  Z " fill-rule="nonzero" fill="#aaaaaa" stroke="none" transform="matrix(1 0 0 1 119 92 )" />
  </g>
</svg>