<?xml version="1.0" encoding="utf-8"?>
<svg version="1.1" xmlns:xlink="http://www.w3.org/1999/xlink" width="57px" height="57px" xmlns="http://www.w3.org/2000/svg">
  <g transform="matrix(1 0 0 1 -159 -129 )">
    <path d="M 159 129  L 216 129  L 216 186  L 159 186  L 159 129  " fill-rule="nonzero" fill="#cccccc" stroke="none" />
    <path d="M 163 133  L 212 133  L 212 182  L 163 182  L 163 133  " fill-rule="nonzero" fill="#ffffff" stroke="none" />
    <path d="M 192.915 146.1  C 190.521 146.1  188.64 144.219  188.64 141.825  C 188.64 139.431  190.521 137.55  192.915 137.55  C 195.309 137.55  197.19 139.431  197.19 141.825  C 197.19 144.219  195.309 146.1  192.915 146.1  " fill-rule="nonzero" fill="#cccccc" stroke="none" />
    <path d="M 165 181  L 165 155.7  L 176.5 144.2  L 192.6 153.4  L 201.8 151.1  L 211 153.4  L 211 181  L 165 181  " fill-rule="nonzero" fill="#169bd5" stroke="none" />
  </g>
</svg>