<?xml version="1.0" encoding="utf-8"?>
<svg version="1.1" xmlns:xlink="http://www.w3.org/1999/xlink" width="300px" height="205px" xmlns="http://www.w3.org/2000/svg">
  <g transform="matrix(1 0 0 1 -97 -109 )">
    <path d="M 97 109  L 397 109  L 397 314  L 97 314  L 97 109  " fill-rule="nonzero" fill="#cccccc" stroke="none" />
    <path d="M 111 123  L 383 123  L 383 300  L 111 300  L 111 123  " fill-rule="nonzero" fill="#ffffff" stroke="none" />
    <path d="M 268.375 170.5  C 259.765 170.5  253 163.735  253 155.125  C 253 146.515  259.765 139.75  268.375 139.75  C 276.985 139.75  283.75 146.515  283.75 155.125  C 283.75 163.735  276.985 170.5  268.375 170.5  " fill-rule="nonzero" fill="#cccccc" stroke="none" />
    <path d="M 116 295  L 116 203.15  L 181.5 161.4  L 273.2 226.53  L 325.6 186.45  L 378 226.53  L 378 295  L 116 295  " fill-rule="nonzero" fill="#169bd5" stroke="none" />
  </g>
</svg>