<svg t="1591752636657" class="icon" viewBox="0 0 1024 1024" version="1.1" xmlns="http://www.w3.org/2000/svg" p-id="2530" width="200" height="200"><path d="M511.8 684.9m-214.7 0a214.7 214.7 0 1 0 429.4 0 214.7 214.7 0 1 0-429.4 0Z" fill="#bfbfbf" p-id="2531"></path><path d="M825.8 921.5H197.4c-21.9 0-38.4-17.2-38.4-40.1V862c0-15.2 2.5-45.4 18.9-76.5 11.6-21.7 28.2-41.1 49.5-57.7l0.6-0.4c26.2-19.3 58.2-32.4 95-39l0.6-0.1c0.2 0 24.1-3.7 47.9-10.9 21.1-6.4 30.8-11.8 34.6-14.4 0.1-2.4 0.2-8.6-1.3-21.5l-0.1-0.9c-3.6-48-23.7-76.6-45.8-104-7.3-8.8-14.8-18.3-20.1-27.7-23.8-41-25.7-86.7-25.7-87.1v-1.3c0-16.4 5.4-27.7 10.4-35.4v-0.6c-5.4-32.7-5.9-81.1-1.2-117 2.1-47.9 35.5-83.5 42.2-90.3l1-1 1.1-0.9c0.1-0.1 0.3-0.2 0.4-0.4-1.6-6.8-1.9-14-1-20.9 1.4-14.1 10.8-32.2 32.9-39.8 9.3-4.4 18.9-4.4 24.3-4.4h0.3c17.4-1.3 35.6-1.3 54.2 0.1h0.4c119 10.5 172 55.5 189.3 74.4l0.1 0.1 1 1 1.1 1.4c12.9 17.2 21.6 36.5 26.6 58.7 2.6 7.6 4 14.4 4.3 20.7 5 29.3 4.2 57.7 2.6 81.9 0 10.9-0.8 21.3-2.5 32.1 3.3 4.4 6.5 10 9.3 18 2.7 7.5 2.7 14.9 2.7 20.8v1.3c0 1.9-0.3 46.1-25.9 87.4-4.1 7.2-9 13.4-14.1 19.9-1.7 2.1-3.4 4.3-5.1 6.6-1.1 1.5-2.3 3.1-3.5 4.7-19.4 26.1-39.4 53-43 99.9-0.6 11.6-0.6 18.7-0.4 23.2 4.5 2.8 14.3 7.9 33.8 13.9 19.7 6 40 9.6 46 10.6h2.2l2.8 0.6c38.9 9 69.6 21.9 93.8 39.6l0.7 0.5c21.6 17 37.8 35.8 49.4 57.6v0.1c16.7 31.6 15.7 57.4 15.2 72.8-0.1 2.3-0.2 4.2-0.2 5.8v17.7c-0.1 23.1-16.6 40.3-38.5 40.3z m-616.8-50h605.2v-7.8c0-2.5 0.1-5 0.2-7.7 0.5-12.4 1.1-27.8-9.4-47.5-8.3-15.6-19.7-28.8-35.8-41.4-18-13.1-41.8-23-72.4-30.3h-0.3l-1.8-0.3c-1.1-0.2-28-4.3-55-12.5-37.4-11.5-59.4-24.9-65.5-40l-1.8-4.5v-0.5c-0.7-2.1-1.2-4.8-1.3-7.9 0-0.3 0-0.6-0.1-0.9-0.3-4.6-1-14.3 0.1-34.2v-0.5c4.6-61.5 31.3-97.4 52.7-126.2 1.2-1.6 2.3-3.1 3.5-4.7l0.2-0.3c2-2.6 3.9-5 5.8-7.4 4.2-5.3 7.8-9.9 10-13.8l0.7-1.1c17.8-28.4 18.6-60.3 18.7-61.6v-1.2c0-1.6 0-3.8-0.1-4.8-1.1-3.3-1.8-4-3-5.1l-2.6-2.6c-5.7-5.7-10.2-16-6.6-28.5 1.9-10.5 2.8-20.2 2.8-30.6v-0.8l0.1-0.8c1.4-21.9 2.2-47.6-2.3-72.6l-0.4-2.2V269c0-0.1 0-2.5-2-8l-0.6-1.6-0.3-1.6c-3.2-15.3-8.9-28.3-17.3-39.7-8.2-8.9-20.9-18.1-35.9-26-32.1-17-72.6-27.8-120.5-32-16.4-1.2-32.3-1.2-47.4 0l-1 0.1h-2.3c-1 0-2.5 0-3.5 0.1l-1.1 0.6-3.1 0.9c-0.1 2.2 0.7 3.6 0.7 3.6l0.1 0.2c0.8 1.1 1.4 2.3 1.9 3.4l1.1 2v0.8c1 3 1.3 5.9 1.3 8.2 0 7.7-3.3 14.7-8.7 19.5-3.7 4.8-7.9 9.9-12.7 14-4.3 4.5-26.1 28.7-27 57.1v1.3l-0.2 1.3c-4.2 31.2-3.7 77.4 1.1 105l0.4 2.1v2.1c0.6 2.3 1.3 5.2 1.3 8.7v7.8l-4.4 6.4c-0.7 1-1.5 2.1-2.3 3.2-3.6 5.1-5 6.9-5 12v0.6c0.3 3.5 3.2 35.6 19.1 62.8l0.3 0.4c3.3 5.9 9.5 13.6 15.1 20.3l0.3 0.3c25 31 52 69.2 56.8 131.2 2.6 23.6 1.8 34.7-0.7 42.4-0.1 0.5-0.3 1.1-0.4 1.6v0.1l-0.1 0.4c-0.2 0.6-0.4 1.2-0.7 1.8l-0.8 2c-5.8 15.7-27.3 29-65.8 40.7h-0.1c-25.9 7.8-51 11.8-54.4 12.4-29 5.2-53.8 15.3-73.7 29.8-15.6 12.2-27.6 26.2-35.8 41.5-11.8 22.3-13 44.5-13 53v9.7z" fill="#bfbfbf" p-id="2532"></path></svg>