<svg t="1591683573698" class="icon" viewBox="0 0 1024 1024" version="1.1" xmlns="http://www.w3.org/2000/svg" p-id="3278" width="200" height="200"><path d="M512.0768 998.016c-267.6736 0-485.4528-217.6512-485.4528-485.1968C26.624 245.1712 244.4032 27.392 512.0768 27.392a36.5568 36.5568 0 0 1 0 73.088c-227.3792 0-412.3648 184.9856-412.3648 412.3648 0 227.2 184.9856 412.0832 412.3648 412.0832 227.2768 0 412.1344-184.8832 412.1344-412.0832a36.5568 36.5568 0 1 1 73.1136 0c-0.0256 267.52-217.7024 485.1712-485.248 485.1712z" p-id="3279" fill="#8a8a8a"></path><path d="M972.672 171.648l-135.2192-99.6608a36.5824 36.5824 0 0 0-43.392 58.8544l56.1664 41.3952a388.6848 388.6848 0 0 0-214.9376 75.8528 388.7872 388.7872 0 0 0-154.9824 256.512 36.5568 36.5568 0 0 0 72.2688 10.9568 316.032 316.032 0 0 1 126.0544-208.5632 315.9552 315.9552 0 0 1 194.56-61.5936l-50.7392 69.2224a36.5312 36.5312 0 0 0 58.9568 43.2384l99.0976-135.1168a36.6848 36.6848 0 0 0-7.8336-51.0976z" p-id="3280" fill="#8a8a8a"></path></svg>