<?xml version="1.0" encoding="utf-8"?>
<svg version="1.1" xmlns:xlink="http://www.w3.org/1999/xlink" width="28px" height="27px" xmlns="http://www.w3.org/2000/svg">
  <g transform="matrix(1 0 0 1 -133 -364 )">
    <path d="M 6.97265625 1.810546875  C 9.11762152777778 0.603515624999998  11.4600694444444 0  14 0  C 16.5399305555556 0  18.8823784722222 0.603515624999998  21.02734375 1.810546875  C 23.1723090277778 3.017578125  24.8706597222222 4.6552734375  26.1223958333333 6.7236328125  C 27.3741319444444 8.7919921875  28 11.05078125  28 13.5  C 28 15.94921875  27.3741319444444 18.2080078125  26.1223958333333 20.2763671875  C 24.8706597222222 22.3447265625  23.1723090277778 23.982421875  21.02734375 25.189453125  C 18.8823784722222 26.396484375  16.5399305555556 27  14 27  C 11.4600694444444 27  9.11762152777778 26.396484375  6.97265625 25.189453125  C 4.82769097222222 23.982421875  3.12934027777778 22.3447265625  1.87760416666667 20.2763671875  C 0.625868055555555 18.2080078125  0 15.94921875  0 13.5  C 0 11.05078125  0.625868055555555 8.7919921875  1.87760416666667 6.7236328125  C 3.12934027777778 4.6552734375  4.82769097222222 3.017578125  6.97265625 1.810546875  Z M 11.0833333333333 20.091796875  L 21 14.466796875  C 21.3888888888889 14.255859375  21.5833333333333 13.93359375  21.5833333333333 13.5  C 21.5833333333333 13.06640625  21.3888888888889 12.744140625  21 12.533203125  L 11.0833333333333 6.908203125  C 10.7065972222222 6.685546875  10.3177083333333 6.6796875  9.91666666666667 6.890625  C 9.52777777777778 7.11328125  9.33333333333333 7.44140625  9.33333333333333 7.875  L 9.33333333333333 19.125  C 9.33333333333333 19.55859375  9.52777777777778 19.88671875  9.91666666666667 20.109375  C 10.1111111111111 20.203125  10.3055555555556 20.25  10.5 20.25  C 10.7065972222222 20.25  10.9010416666667 20.197265625  11.0833333333333 20.091796875  Z " fill-rule="nonzero" fill="#aaaaaa" stroke="none" transform="matrix(1 0 0 1 133 364 )" />
  </g>
</svg>