<?xml version="1.0" encoding="utf-8"?>
<svg version="1.1" xmlns:xlink="http://www.w3.org/1999/xlink" width="12px" height="12px" viewBox="135 493  12 12" xmlns="http://www.w3.org/2000/svg">
  <path d="M 141 493  C 144.36 493  147 495.64  147 499  C 147 502.36  144.36 505  141 505  C 137.64 505  135 502.36  135 499  C 135 495.64  137.64 493  141 493  Z " fill-rule="nonzero" fill="#ffffff" stroke="none" />
  <path d="M 141 493.5  C 144.08 493.5  146.5 495.92  146.5 499  C 146.5 502.08  144.08 504.5  141 504.5  C 137.92 504.5  135.5 502.08  135.5 499  C 135.5 495.92  137.92 493.5  141 493.5  Z " stroke-width="1" stroke="#797979" fill="none" />
  <path d="M 141 502  C 139.32 502  138 500.68  138 499  C 138 497.32  139.32 496  141 496  C 142.68 496  144 497.32  144 499  C 144 500.68  142.68 502  141 502  " fill-rule="nonzero" fill="#797979" stroke="none" />
</svg>