<svg xmlns="http://www.w3.org/2000/svg" class="icon" viewBox="0 0 1024 1024" width="200" height="200" t="1591539354470" p-id="16097" version="1.1"><path fill="#8a8a8a" d="M 923.733 187.733 H 716.8 C 714.667 83.2 629.333 0 524.8 0 s -189.867 83.2 -192 187.733 H 106.667 c -27.734 0 -49.067 21.334 -49.067 49.067 s 21.333 49.067 49.067 49.067 h 81.066 v 550.4 c 0 102.4 0 187.733 136.534 187.733 h 381.866 c 136.534 0 136.534 -83.2 136.534 -187.733 v -550.4 h 81.066 c 27.734 0 49.067 -21.334 49.067 -49.067 s -23.467 -49.067 -49.067 -49.067 Z m -401.066 -96 c 53.333 0 98.133 40.534 100.266 93.867 H 422.4 c 4.267 -51.2 46.933 -93.867 100.267 -93.867 Z m 179.2 840.534 H 328.533 c -51.2 0 -53.333 -38.4 -53.333 -96 v -550.4 h 480 v 550.4 c 0 57.6 4.267 96 -53.333 96 Z" p-id="16098" /><path fill="#8a8a8a" d="M 430.933 422.4 c -23.466 0 -40.533 23.467 -40.533 51.2 v 290.133 c 0 27.734 17.067 51.2 40.533 51.2 c 23.467 0 40.534 -23.466 40.534 -51.2 V 473.6 c 0 -27.733 -19.2 -51.2 -40.534 -51.2 Z m 168.534 0 c -23.467 0 -40.534 23.467 -40.534 51.2 v 290.133 c 0 27.734 19.2 51.2 40.534 51.2 c 23.466 0 40.533 -23.466 40.533 -51.2 V 473.6 c 2.133 -27.733 -17.067 -51.2 -40.533 -51.2 Z" p-id="16099" /></svg>