<svg t="1592279556281" class="icon" viewBox="0 0 1024 1024" version="1.1" xmlns="http://www.w3.org/2000/svg" p-id="2684" width="200" height="200"><path d="M580.59863281 80.34980469l-3.59736328 4.15019531a49.18095703 49.18095703 0 0 0 3.04277344 70.55507813c99.95273437 92.34404297 161.79257813 219.96474609 161.79257812 360.86660156 0 138.82763672-60.17871094 264.37324219-157.50351562 356.71728515a49.38837891 49.38837891 0 0 0-3.11308594 70.07080079c21.44355469 23.58720703 60.38701172 24.90117188 83.559375 3.11220703 119.390625-111.57363281 192.78105469-264.64921875 192.78105469-433.49677735 0-169.47070313-74.01357422-322.75371094-193.95703125-434.60419922a59.34902344 59.34902344 0 0 0-83.00566406 2.6288086zM480.15986328 261.16367188c-19.78242188-24.62519531-58.7953125-27.46054688-82.45195312-6.22529297l-1.10742188 1.03710937a48.00498047 48.00498047 0 0 0-6.22529297 66.40488281A314.59130859 314.59130859 0 0 1 460.65429687 519.3125c0 68.203125-22.27324219 131.77089844-60.66298828 184.47978516-15.21738281 21.23613281-11.0671875 49.80322266 10.16894532 66.40488281 24.83173828 19.43701172 62.94550781 14.73310547 81.27597656-10.16894531a409.07988281 409.07988281 0 0 0 80.16943359-242.03056641c0-96.21738281-33.89414063-184.9640625-91.44492187-256.83310547zM165.84628906 534.18359375a69.17167969 69.17167969 0 1 0 138.34248047 0 69.17167969 69.17167969 0 1 0-138.34248047 0z" p-id="2685" fill="#8a8a8a"></path></svg>