<svg t="1591602219158" class="icon" viewBox="0 0 1024 1024" version="1.1" xmlns="http://www.w3.org/2000/svg" p-id="13973" width="200" height="200"><path d="M987.428571 855.771429l-365.714285-365.714286 358.4-358.4c7.314286-7.314286 7.314286-14.628571 0-21.942857L892.342857 21.942857c-7.314286-7.314286-14.628571-7.314286-21.942857 0L512 380.342857 153.6 21.942857C146.285714 14.628571 138.971429 14.628571 131.657143 21.942857L43.885714 109.714286c-7.314286 7.314286-7.314286 14.628571 0 21.942857l358.4 358.4-351.085714 351.085714c-14.628571 14.628571-14.628571 29.257143 0 43.885714l80.457143 80.457143c7.314286 7.314286 14.628571 7.314286 21.942857 0l365.714286-365.714285 351.085714 351.085714c14.628571 14.628571 29.257143 14.628571 43.885714 0l80.457143-80.457143c-7.314286 0-7.314286-7.314286-7.314286-14.628571z" fill="#8a8a8a" p-id="13974"></path></svg>