<?xml version="1.0" encoding="utf-8"?>
<svg version="1.1" xmlns:xlink="http://www.w3.org/1999/xlink" width="59px" height="32px" xmlns="http://www.w3.org/2000/svg">
  <defs>
    <mask fill="white" id="clip31">
      <path d="M 0 22.5882352941176  L 0 9.41176470588235  C 0 4.14117647058821  2.19999999999999 0  5 0  L 29 0  L 54 0  C 56.8 0  59 4.14117647058821  59 9.41176470588235  L 59 22.5882352941176  C 59 27.8588235294118  56.8 32  54 32  L 5 32  C 2.19999999999999 32  0 27.8588235294118  0 22.5882352941176  Z " fill-rule="evenodd" />
    </mask>
  </defs>
  <g transform="matrix(1 0 0 1 -332 -599 )">
    <path d="M 0 22.5882352941176  L 0 9.41176470588235  C 0 4.14117647058821  2.19999999999999 0  5 0  L 29 0  L 54 0  C 56.8 0  59 4.14117647058821  59 9.41176470588235  L 59 22.5882352941176  C 59 27.8588235294118  56.8 32  54 32  L 5 32  C 2.19999999999999 32  0 27.8588235294118  0 22.5882352941176  Z " fill-rule="nonzero" fill="#ffffff" stroke="none" transform="matrix(1 0 0 1 332 599 )" />
    <path d="M 0 22.5882352941176  L 0 9.41176470588235  C 0 4.14117647058821  2.19999999999999 0  5 0  L 29 0  L 54 0  C 56.8 0  59 4.14117647058821  59 9.41176470588235  L 59 22.5882352941176  C 59 27.8588235294118  56.8 32  54 32  L 5 32  C 2.19999999999999 32  0 27.8588235294118  0 22.5882352941176  Z " stroke-width="2" stroke="#797979" fill="none" transform="matrix(1 0 0 1 332 599 )" mask="url(#clip31)" />
  </g>
</svg>