<?xml version="1.0" encoding="utf-8"?>
<svg version="1.1" xmlns:xlink="http://www.w3.org/1999/xlink" width="12px" height="12px" viewBox="1060 523  12 12" xmlns="http://www.w3.org/2000/svg">
  <path d="M 1066 523  C 1069.36 523  1072 525.64  1072 529  C 1072 532.36  1069.36 535  1066 535  C 1062.64 535  1060 532.36  1060 529  C 1060 525.64  1062.64 523  1066 523  Z " fill-rule="nonzero" fill="#ffffff" stroke="none" />
  <path d="M 1066 523.5  C 1069.08 523.5  1071.5 525.92  1071.5 529  C 1071.5 532.08  1069.08 534.5  1066 534.5  C 1062.92 534.5  1060.5 532.08  1060.5 529  C 1060.5 525.92  1062.92 523.5  1066 523.5  Z " stroke-width="1" stroke="#797979" fill="none" />
  <path d="M 1066 532  C 1064.32 532  1063 530.68  1063 529  C 1063 527.32  1064.32 526  1066 526  C 1067.68 526  1069 527.32  1069 529  C 1069 530.68  1067.68 532  1066 532  " fill-rule="nonzero" fill="#797979" stroke="none" />
</svg>