<svg xmlns="http://www.w3.org/2000/svg" class="icon" viewBox="0 0 2048 1024" width="200" height="200" t="1591538460805" p-id="10320" version="1.1"><path fill="#707070" d="M 0 477.867 h 68.2667 v 68.2667 H 0 Z M 385.707 546.133 H 324.267 v -68.2667 h 64.8533 v 68.2667 Z m -191.147 0 H 133.12 v -68.2667 h 64.8533 v 68.2667 Z M 1914.88 546.133 h -64.8533 v -68.2667 h 64.8533 v 68.2667 Z m -191.147 0 h -64.8533 v -68.2667 h 64.8533 v 68.2667 Z m -126.293 0 h -126.293 v -68.2667 h 126.293 v 68.2667 Z m -191.147 0 h -64.8533 v -68.2667 h 64.8533 v 68.2667 Z m -191.147 0 h -64.8533 v -68.2667 h 64.8533 v 68.2667 Z m -126.293 0 h -126.293 v -68.2667 h 126.293 v 68.2667 Z m -191.147 0 h -64.8533 v -68.2667 h 64.8533 v 68.2667 Z m -191.147 0 h -64.8533 v -68.2667 h 64.8533 v 68.2667 Z m -129.707 0 h -126.293 v -68.2667 h 126.293 v 68.2667 Z M 1979.73 477.867 h 68.2667 v 68.2667 h -68.2667 Z" p-id="10321" /></svg>