<?xml version="1.0" encoding="utf-8"?>
<svg version="1.1" xmlns:xlink="http://www.w3.org/1999/xlink" width="12px" height="12px" viewBox="134 511  12 12" xmlns="http://www.w3.org/2000/svg">
  <path d="M 140 511  C 143.36 511  146 513.64  146 517  C 146 520.36  143.36 523  140 523  C 136.64 523  134 520.36  134 517  C 134 513.64  136.64 511  140 511  Z " fill-rule="nonzero" fill="#ffffff" stroke="none" />
  <path d="M 140 511.5  C 143.08 511.5  145.5 513.92  145.5 517  C 145.5 520.08  143.08 522.5  140 522.5  C 136.92 522.5  134.5 520.08  134.5 517  C 134.5 513.92  136.92 511.5  140 511.5  Z " stroke-width="1" stroke="#797979" fill="none" />
  <path d="M 140 520  C 138.32 520  137 518.68  137 517  C 137 515.32  138.32 514  140 514  C 141.68 514  143 515.32  143 517  C 143 518.68  141.68 520  140 520  " fill-rule="nonzero" fill="#797979" stroke="none" />
</svg>