<?xml version="1.0" encoding="utf-8"?>
<svg version="1.1" xmlns:xlink="http://www.w3.org/1999/xlink" width="12px" height="12px" viewBox="501 511  12 12" xmlns="http://www.w3.org/2000/svg">
  <path d="M 507 511  C 510.36 511  513 513.64  513 517  C 513 520.36  510.36 523  507 523  C 503.64 523  501 520.36  501 517  C 501 513.64  503.64 511  507 511  Z " fill-rule="nonzero" fill="#ffffff" stroke="none" />
  <path d="M 507 511.5  C 510.08 511.5  512.5 513.92  512.5 517  C 512.5 520.08  510.08 522.5  507 522.5  C 503.92 522.5  501.5 520.08  501.5 517  C 501.5 513.92  503.92 511.5  507 511.5  Z " stroke-width="1" stroke="#797979" fill="none" />
  <path d="M 507 520  C 505.32 520  504 518.68  504 517  C 504 515.32  505.32 514  507 514  C 508.68 514  510 515.32  510 517  C 510 518.68  508.68 520  507 520  " fill-rule="nonzero" fill="#797979" stroke="none" />
</svg>