<?xml version="1.0" encoding="utf-8"?>
<svg version="1.1" xmlns:xlink="http://www.w3.org/1999/xlink" width="23px" height="26px" xmlns="http://www.w3.org/2000/svg">
  <g transform="matrix(1 0 0 1 -734 -656 )">
    <path d="M 22.5426136363636 9.97159090909091  C 22.8475378787879 10.3162878787879  23 10.7348484848485  23 11.2272727272727  L 23 14.7727272727273  C 23 15.2651515151515  22.8475378787879 15.6837121212121  22.5426136363636 16.0284090909091  C 22.2376893939394 16.3731060606061  21.8674242424242 16.5454545454545  21.4318181818182 16.5454545454545  L 14.6363636363636 16.5454545454545  L 14.6363636363636 24.2272727272727  C 14.6363636363636 24.719696969697  14.4839015151515 25.1382575757576  14.1789772727273 25.4829545454545  C 13.874053030303 25.8276515151515  13.5037878787879 26  13.0681818181818 26  L 9.93181818181818 26  C 9.49621212121212 26  9.12594696969697 25.8276515151515  8.82102272727273 25.4829545454545  C 8.51609848484849 25.1382575757576  8.36363636363636 24.719696969697  8.36363636363636 24.2272727272727  L 8.36363636363636 16.5454545454545  L 1.56818181818182 16.5454545454545  C 1.13257575757576 16.5454545454545  0.762310606060606 16.3731060606061  0.457386363636364 16.0284090909091  C 0.152462121212121 15.6837121212121  0 15.2651515151515  0 14.7727272727273  L 0 11.2272727272727  C 0 10.7348484848485  0.152462121212121 10.3162878787879  0.457386363636364 9.97159090909091  C 0.762310606060606 9.62689393939394  1.13257575757576 9.45454545454546  1.56818181818182 9.45454545454546  L 8.36363636363636 9.45454545454546  L 8.36363636363636 1.77272727272727  C 8.36363636363636 1.28030303030303  8.51609848484849 0.861742424242423  8.82102272727273 0.517045454545455  C 9.12594696969697 0.172348484848484  9.49621212121212 0  9.93181818181818 0  L 13.0681818181818 0  C 13.5037878787879 0  13.874053030303 0.172348484848484  14.1789772727273 0.517045454545455  C 14.4839015151515 0.861742424242423  14.6363636363636 1.28030303030303  14.6363636363636 1.77272727272727  L 14.6363636363636 9.45454545454546  L 21.4318181818182 9.45454545454546  C 21.8674242424242 9.45454545454546  22.2376893939394 9.62689393939394  22.5426136363636 9.97159090909091  Z " fill-rule="nonzero" fill="#000000" stroke="none" transform="matrix(1 0 0 1 734 656 )" />
  </g>
</svg>