<?xml version="1.0" encoding="utf-8"?>
<svg version="1.1" xmlns:xlink="http://www.w3.org/1999/xlink" width="24px" height="8px" xmlns="http://www.w3.org/2000/svg">
  <g transform="matrix(1 0 0 1 -597 -666 )">
    <path d="M 23.5227272727273 0.583333333333333  C 23.8409090909091 0.972222222222219  24 1.44444444444444  24 2  L 24 6  C 24 6.55555555555555  23.8409090909091 7.02777777777778  23.5227272727273 7.41666666666667  C 23.2045454545455 7.80555555555555  22.8181818181818 8  22.3636363636364 8  L 1.63636363636364 8  C 1.18181818181818 8  0.795454545454546 7.80555555555555  0.477272727272727 7.41666666666667  C 0.159090909090909 7.02777777777778  0 6.55555555555555  0 6  L 0 2  C 0 1.44444444444444  0.159090909090909 0.972222222222219  0.477272727272727 0.583333333333333  C 0.795454545454546 0.194444444444443  1.18181818181818 0  1.63636363636364 0  L 22.3636363636364 0  C 22.8181818181818 0  23.2045454545455 0.194444444444443  23.5227272727273 0.583333333333333  Z " fill-rule="nonzero" fill="#000000" stroke="none" transform="matrix(1 0 0 1 597 666 )" />
  </g>
</svg>