<svg t="1591929039158" class="icon" viewBox="0 0 1024 1024" version="1.1" xmlns="http://www.w3.org/2000/svg" p-id="2687" width="200" height="200"><path d="M512 1024C229.23264 1024 0 794.76736 0 512S229.23264 0 512 0s512 229.23264 512 512-229.23264 512-512 512z m0-40.96c260.15744 0 471.04-210.88256 471.04-471.04S772.15744 40.96 512 40.96 40.96 251.84256 40.96 512s210.88256 471.04 471.04 471.04z m180.92032-716.6976c54.1696 0.06144 85.25824 31.39584 85.25824 85.97504 0.06144 105.8816 0.06144 211.82464-0.02048 317.7472 0 57.05728-30.06464 87.18336-86.9376 87.18336l-359.95648-0.08192c-54.0672 0-85.15584-30.67904-85.31968-84.35712-0.24576-107.37664-0.24576-214.75328 0-322.1504 0.16384-52.79744 31.6416-84.2752 84.09088-84.31616L539.50464 266.24l153.3952 0.1024z m44.83072 408.14592l-0.04096-19.21024c0-12.34944-0.06144-24.69888 0.24576-37.0688a15.27808 15.27808 0 0 0-5.05856-12.65664 5993.8816 5993.8816 0 0 1-101.62176-102.74816 19.00544 19.00544 0 0 0-2.6624-2.51904c-0.28672 0.512-1.18784 1.37216-2.72384 3.03104a11646.50496 11646.50496 0 0 1-76.5952 81.57184c-19.8656 21.05344-39.7312 42.10688-59.47392 63.22176-4.23936 4.64896-9.4208 9.54368-16.4864 9.54368-7.168 0-12.61568-5.12-16.0768-8.84736-9.216-10.19904-19.00544-20.00896-28.75392-29.67552-9.3184-9.29792-18.7392-18.6368-27.60704-28.38528a16.05632 16.05632 0 0 0-3.23584-2.8672 21.85216 21.85216 0 0 0-3.72736 3.39968 6564.80256 6564.80256 0 0 1-103.13728 103.54688c5.05856 10.58816 12.3904 16.7936 22.24128 19.47648 0.38912 0.14336 0.75776 0.4096 1.18784 0.47104 1.49504 0.32768 3.2768 0.32768 4.85376 0.53248 2.2528 0.24576 4.23936 0.7168 6.63552 0.7168 31.10912-0.14336 62.1568-0.2048 93.2864-0.2048l204.26752 0.06144 73.9328-0.1024c26.76736 0 40.40704-13.9264 40.5504-41.28768z m0-121.4464v-199.82336c0-33.13664-12.24704-45.4656-45.19936-45.4656H334.09024c-36.16768 0-47.75936 11.53024-47.75936 47.53408v286.86336l13.04576-13.14816c28.69248-28.71296 56.0128-56.15616 83.00544-83.92704 3.82976-3.95264 8.72448-7.92576 15.23712-7.92576 6.59456 0 11.55072 4.28032 15.01184 8.13056 7.7824 8.04864 15.64672 16.01536 23.63392 23.8592a701.2352 701.2352 0 0 1 32.21504 33.11616c3.23584 3.52256 4.62848 4.05504 4.7104 4.05504-0.28672-0.06144 1.08544-0.75776 4.97664-4.95616 23.49056-25.35424 47.28832-50.46272 70.94272-75.5712a10247.70048 10247.70048 0 0 0 64.2048-68.25984c3.8912-4.096 8.51968-8.45824 15.21664-8.45824 6.2464 0 10.8544 3.91168 14.56128 7.76192 17.32608 17.87904 34.816 35.59424 52.49024 53.1456l31.45728 31.62112c3.62496 3.74784 7.20896 7.53664 10.71104 11.44832zM431.67744 389.12a42.0864 42.0864 0 0 1 30.22848 12.5952c7.9872 8.13056 12.36992 19.12832 12.1856 30.53568-0.08192 24.1664-18.30912 42.43456-42.43456 42.43456h-0.512C408.41216 474.46016 389.12 455.14752 389.12 432.5376a43.15136 43.15136 0 0 1 12.65664-30.78144c8.04864-8.0896 18.6368-12.61568 29.83936-12.61568h0.06144z" p-id="2688" fill="#8a8a8a"></path></svg>