<svg t="1591587730112" class="icon" viewBox="0 0 1024 1024" version="1.1" xmlns="http://www.w3.org/2000/svg" p-id="9733" width="200" height="200"><path d="M0 0h1024v1024H0z" fill="#8a8a8a" opacity=".01" p-id="9734"></path><path d="M999.082667 1003.804444c-32.199111 26.908444-80.554667 26.908444-107.406223 0l-424.391111-474.282666-96.654222 86.243555L128.910222 362.382222l257.820445-242.517333 247.125333 253.326222-91.306667 86.186667 461.937778 441.969778a70.428444 70.428444 0 0 1-5.404444 102.4z" fill="#8a8a8a" opacity=".9" p-id="9735"></path><path d="M429.738667 12.117333a56.32 56.32 0 0 1 69.802666 0l247.125334 258.730667c16.099556 21.504 16.099556 48.469333 0 64.625778a56.32 56.32 0 0 1-69.859556 0L424.391111 76.8c-16.099556-16.156444-16.099556-48.526222 5.404445-64.682667z m-96.711111 711.395556a56.32 56.32 0 0 1-69.802667 0L16.099556 464.839111c-21.447111-21.560889-21.447111-53.873778 0-70.087111 16.156444-16.156444 48.355556-16.156444 69.859555 0l252.472889 258.730667c10.695111 21.560889 10.695111 48.469333-5.404444 70.030222z" fill="#8a8a8a" opacity=".6" p-id="9736"></path></svg>