<?xml version="1.0" encoding="utf-8"?>
<svg version="1.1" xmlns:xlink="http://www.w3.org/1999/xlink" width="35px" height="13px" xmlns="http://www.w3.org/2000/svg">
  <defs>
    <mask fill="white" id="clip26">
      <path d="M 30.2351485148515 0.0550847457627131  L 4.24504950495049 0.0550847457627131  C 4.24504950495049 0.0550847457627131  0.268105177168623 2.88880521654324  0.25990099009901 6.5  C 0.251636035231517 10.1379426321897  4.24504950495049 13  4.24504950495049 13  L 30.2351485148515 13  C 30.2351485148515 13  34.6623568210658 10.1375460970322  34.6534653465347 6.5  C 34.64463732067 2.88841106546368  30.2351485148515 0.0550847457627131  30.2351485148515 0.0550847457627131  Z " fill-rule="evenodd" />
    </mask>
  </defs>
  <g transform="matrix(1 0 0 1 -331 -665 )">
    <path d="M 30.2351485148515 0.0550847457627131  L 4.24504950495049 0.0550847457627131  C 4.24504950495049 0.0550847457627131  0.268105177168623 2.88880521654324  0.25990099009901 6.5  C 0.251636035231517 10.1379426321897  4.24504950495049 13  4.24504950495049 13  L 30.2351485148515 13  C 30.2351485148515 13  34.6623568210658 10.1375460970322  34.6534653465347 6.5  C 34.64463732067 2.88841106546368  30.2351485148515 0.0550847457627131  30.2351485148515 0.0550847457627131  Z " fill-rule="nonzero" fill="#ffffff" stroke="none" transform="matrix(1 0 0 1 331 665 )" />
    <path d="M 30.2351485148515 0.0550847457627131  L 4.24504950495049 0.0550847457627131  C 4.24504950495049 0.0550847457627131  0.268105177168623 2.88880521654324  0.25990099009901 6.5  C 0.251636035231517 10.1379426321897  4.24504950495049 13  4.24504950495049 13  L 30.2351485148515 13  C 30.2351485148515 13  34.6623568210658 10.1375460970322  34.6534653465347 6.5  C 34.64463732067 2.88841106546368  30.2351485148515 0.0550847457627131  30.2351485148515 0.0550847457627131  Z " stroke-width="2" stroke="#797979" fill="none" transform="matrix(1 0 0 1 331 665 )" mask="url(#clip26)" />
  </g>
</svg>