<svg t="1591588243613" class="icon" viewBox="0 0 1024 1024" version="1.1" xmlns="http://www.w3.org/2000/svg" p-id="13036" width="200" height="200"><path d="M5.49999999 1009.8c0-0.6 0.5-1 1.00000001-1l7.7 0c0.6 0 1 0.4 1 1L15.2 1022.2c0 0.6-0.5 1-1 1L6.5 1023.2c-0.6 0-1-0.4-1-1l-1e-8-12.4m-0.49999999 0L5 1022.2C5 1023 5.7 1023.7 6.5 1023.7l7.7 0c0.79999999 0 1.5-0.7 1.5-1.5l0-12.3c0-0.79999999-0.7-1.5-1.5-1.49999999L6.5 1008.4c-0.8-0.1-1.5 0.6-1.5 1.4z" fill="#515151" p-id="13037"></path><path d="M10.1 1017.5l0-3 0.5 0 0 3z" fill="#515151" p-id="13038"></path><path d="M8.8 1016.3l0-0.5 3 0 0 0.5zM3.09999999 1014.8c0-0.29999999 0.20000001-0.5 0.5-0.5L5 1014.3 5 1017.8 3.6 1017.8c-0.29999999 0-0.5-0.20000001-0.5-0.5l-1e-8-2.5m-0.5 0L2.6 1017.3c0 0.6 0.4 1 1 1l1.89999999 0 1e-8-4.5L3.6 1013.79999999c-0.5 0-1 0.4-1.00000001 1.00000001z" fill="#515151" p-id="13039"></path><path d="M109.5 344.9c-18.3-66.3 0.1-137.7 48.1-186.2 35.8-36.2 83.8-56.4 135.2-56.7 51.4-0.3 99.6 19.19999999 135.8 55L864.9 588c23.69999999 23.4 40.9 52.7 49.7 84.8 18.3 66.3-0.1 137.7-48.1 186.2-35.8 36.2-83.8 56.4-135.2 56.7-51.4 0.3-99.6-19.19999999-135.8-55l-436.3-431c-23.60000001-23.4-40.8-52.7-49.7-84.8m-36.9 10.2c10.3 37.5 30.2 72.8 59.7 101.9L568.6 888c90 88.9 236.3 88 325.2-2 59.8-60.5 78.9-146.5 57.79999999-223.3-10.3-37.5-30.2-72.8-59.69999999-101.9l-436.3-431c-90-88.9-236.3-88-325.2 2-59.8 60.4-79 146.4-57.8 223.3z" fill="#515151" p-id="13040"></path><path d="M250.9 423.9c1.80000001 6.4 0.1 13.5-4.9 18.6-7.4 7.5-19.6 7.6-27.1 0.2l-26.4-26c-30.2-29.8-47-69.5-47.1-112.3-0.1-24.3 5.4-48.8 15.9-70.6 4.6-9.5 16.1-13.5 25.6-8.89999999 9.50000001 4.5 13.4 16 8.9 25.59999999-8 16.6-12.2 35.1-12.09999999 53.7 0.3 32.1 12.9 62.6 35.79999999 85.1l26.40000001 26c2.5 2.5 4.2 5.4 4.99999999 8.6z" fill="#515151" p-id="13041"></path><path d="M637.7 319.00000001c1.9 7 0.1 14.8-5.3 19.59999999-1.2 1-118.5 106.9-153.8 145.2-34 36.7-127.7 158.4-128.6 159.6-6.2 8.1-17.5 9-25.3 2.1-7.8-6.9-9.1-19-2.9-27.1 3.9-5.1 95.60000001-124.1 130.7-162.1 36.4-39.39999999 151.20000001-143 156.1-147.4 7.4-6.69999999 18.8-5.5 25.39999999 2.7 1.7 2.2 2.99999999 4.8 3.70000001 7.40000001z" fill="#515151" p-id="13042"></path></svg>