<svg xmlns="http://www.w3.org/2000/svg" class="icon" viewBox="0 0 1248 1024" width="200" height="200" t="1591519934702" p-id="3891" version="1.1"><path fill="#8a8a8a" d="M 1210.8 227.624 a 34.7532 34.7532 0 0 0 -34.7532 34.7532 v 636.678 a 55.6051 55.6051 0 0 1 -55.5216 55.5355 H 124.917 a 55.6051 55.6051 0 0 1 -55.5216 -55.5355 V 154.712 A 55.6051 55.6051 0 0 1 124.917 99.1767 h 601.73 a 34.7532 34.7532 0 0 0 0 -69.409 H 124.917 A 125.111 125.111 0 0 0 0 154.712 V 899.055 a 125.111 125.111 0 0 0 124.917 124.945 h 995.72 A 125.111 125.111 0 0 0 1245.55 899.055 v -636.678 a 34.7532 34.7532 0 0 0 -34.7532 -34.7532 Z" p-id="3892" /><path fill="#8a8a8a" d="M 368.717 571.097 c 99.116 0 179.771 -80.6273 179.771 -179.757 s -80.6273 -179.785 -179.771 -179.785 s -179.757 80.6273 -179.757 179.785 a 179.966 179.966 0 0 0 179.757 179.757 Z m 0 -290.133 a 110.376 110.376 0 1 1 -110.362 110.376 a 110.487 110.487 0 0 1 110.362 -110.376 Z M 981.123 834.123 a 34.7532 34.7532 0 1 0 44.484 -53.2696 L 764.848 563.27 a 34.6141 34.6141 0 0 0 -43.3719 -0.917483 L 537.687 703.145 l -91.0533 -75.9982 a 34.6419 34.6419 0 0 0 -43.3163 -0.917484 L 202.569 779.908 a 34.7532 34.7532 0 1 0 42.1764 55.1185 l 178.729 -136.858 l 90.3582 75.4283 c 0.486544 0.430939 1.00089 0.861878 1.51524 1.26502 l 71.0077 59.2611 a 34.7532 34.7532 0 1 0 44.484 -53.2696 l -38.5204 -32.1675 l 149.397 -114.394 Z M 797.835 217.838 h 111.724 v 111.669 a 34.7532 34.7532 0 1 0 69.3951 0 v -111.669 h 111.724 a 34.7532 34.7532 0 0 0 0 -69.409 h -111.724 V 36.7183 a 34.7532 34.7532 0 1 0 -69.3951 0 v 111.711 h -111.724 a 34.7532 34.7532 0 0 0 0 69.409 Z" p-id="3893" /></svg>