<?xml version="1.0" encoding="utf-8"?>
<svg version="1.1" xmlns:xlink="http://www.w3.org/1999/xlink" width="13px" height="14px" xmlns="http://www.w3.org/2000/svg">
  <g transform="matrix(1 0 0 1 -884 -98 )">
    <path d="M 12.7766323024055 0.841683366733466  C 12.9255441008018 0.935203740814962  13 1.04275217100868  13 1.16432865731463  C 13 1.28590514362057  12.9255441008018 1.39345357381429  12.7766323024055 1.48697394789579  L 3.99828178694158 7  L 12.7766323024055 12.5130260521042  C 12.9255441008018 12.6065464261857  13 12.7140948563794  13 12.8356713426854  C 13 12.9572478289913  12.9255441008018 13.064796259185  12.7766323024055 13.1583166332665  L 11.659793814433 13.8597194388778  C 11.5108820160367 13.9532398129593  11.3396334478809 14  11.1460481099656 14  C 10.9524627720504 14  10.7812142038946 13.9532398129593  10.6323024054983 13.8597194388778  L 0.223367697594502 7.32264529058116  C 0.0744558991981673 7.22912491649967  0 7.12157648630594  0 7  C 0 6.87842351369405  0.0744558991981673 6.77087508350033  0.223367697594502 6.67735470941884  L 10.6323024054983 0.140280561122245  C 10.7812142038946 0.0467601870407477  10.9524627720504 0  11.1460481099656 0  C 11.3396334478809 0  11.5108820160367 0.0467601870407477  11.659793814433 0.140280561122245  L 12.7766323024055 0.841683366733466  Z " fill-rule="nonzero" fill="#7f7f7f" stroke="none" transform="matrix(1 0 0 1 884 98 )" />
  </g>
</svg>