<?xml version="1.0" encoding="utf-8"?>
<svg version="1.1" xmlns:xlink="http://www.w3.org/1999/xlink" width="116px" height="62px" xmlns="http://www.w3.org/2000/svg">
  <g transform="matrix(1 0 0 1 -206 -327 )">
    <path d="M 87.3020833333333 2.35267857142857  L 110.864583333333 13.1473214285714  C 112.274305555556 13.7931547619048  113.482638888889 14.6696428571429  114.489583333333 15.7767857142857  C 115.496527777778 16.8839285714286  116 17.8988095238095  116 18.8214285714286  L 116 58.6785714285714  C 116 59.6011904761905  115.295138888889 60.3854166666667  113.885416666667 61.03125  C 112.475694444444 61.6770833333333  110.763888888889 62  108.75 62  L 7.25 62  C 5.23611111111111 62  3.52430555555556 61.6770833333333  2.11458333333333 61.03125  C 0.704861111111111 60.3854166666667  0 59.6011904761905  0 58.6785714285714  L 0 3.32142857142857  C 0 2.39880952380952  0.704861111111111 1.61458333333333  2.11458333333333 0.96875  C 3.52430555555556 0.322916666666669  5.23611111111111 0  7.25 0  L 74.9166666666667 0  C 76.9305555555556 0  79.1458333333333 0.230654761904765  81.5625 0.691964285714287  C 83.9791666666667 1.15327380952381  85.8923611111111 1.70684523809524  87.3020833333333 2.35267857142857  Z M 80.4296875 5.46651785714286  C 79.8255208333333 5.18973214285714  78.7934027777778 4.9360119047619  77 4.70535714285714  L 77 18  L 105.729166666667 18  C 105.225694444444 17.0453869047619  104.671875 16.5725446428571  104.067708333333 16.2957589285714  L 80.4296875 5.46651785714286  Z M 10 57  L 106 57  L 106 23  L 74.9166666666667 23  C 72.9027777777778 22.1428571428571  71.1909722222222 21.8199404761905  69.78125 21.1741071428571  C 68.3715277777778 20.5282738095238  67.6666666666667 19.7440476190476  67 18.8214285714286  L 67 5  L 10 5  L 10 57  Z M 44.1796875 29.6506696428571  C 44.9852430555556 29.3046875  45.8663194444444 29.2239583333333  46.8229166666667 29.4084821428571  C 47.8298611111111 29.5930059523809  48.3333333333333 29.9389880952381  49 30.4464285714286  L 49 49.2678571428571  C 48.3333333333333 49.7752976190476  47.8298611111111 50.1212797619048  46.8229166666667 50.3058035714286  C 46.4201388888889 50.3519345238095  46.1180555555556 50.375  45.9166666666667 50.375  C 45.3125 50.375  44.7335069444444 50.2712053571429  44.1796875 50.0636160714286  L 31.6432291666667 44.2857142857143  L 21.75 44.2857142857143  C 21.0451388888889 44.2857142857143  20.4661458333333 44.1819196428571  20.0130208333333 43.9743303571429  C 19.5598958333333 43.7667410714286  19.3333333333333 43.5014880952381  19.3333333333333 43.1785714285714  L 19.3333333333333 36.5357142857143  C 19.3333333333333 36.2127976190476  19.5598958333333 35.9475446428571  20.0130208333333 35.7399553571429  C 20.4661458333333 35.5323660714286  21.0451388888889 35.4285714285714  21.75 35.4285714285714  L 31.6432291666667 35.4285714285714  L 44.1796875 29.6506696428571  Z M 75.2942708333333 52.7276785714286  C 76.2005208333333 53.0736607142857  77.2074652777778 53.2466517857143  78.3151041666667 53.2466517857143  C 79.8758680555556 53.2466517857143  81.1345486111111 52.9698660714286  82.0911458333333 52.4162946428571  C 88.5859375 48.7488839285714  91.8333333333333 44.5625  91.8333333333333 39.8571428571429  C 91.8333333333333 35.1517857142857  88.5859375 30.9654017857143  82.0911458333333 27.2979910714286  C 81.2855902777778 26.8136160714286  80.203125 26.5368303571429  78.84375 26.4676339285714  C 77.484375 26.3984375  76.3012152777778 26.5598958333333  75.2942708333333 26.9520089285714  C 74.2369791666667 27.3441220238095  73.6453993055556 27.8457961309524  73.51953125 28.45703125  C 73.3936631944444 29.0682663690476  73.7586805555556 29.6160714285714  74.6145833333333 30.1004464285714  C 79.6493055555556 32.9375  82.1666666666667 36.1897321428571  82.1666666666667 39.8571428571429  C 82.1666666666667 43.5245535714286  79.6493055555556 46.7767857142857  74.6145833333333 49.6138392857143  C 73.7586805555556 50.0982142857143  73.3936631944444 50.6460193452381  73.51953125 51.2572544642857  C 73.6453993055556 51.8684895833333  74.2369791666667 52.3586309523809  75.2942708333333 52.7276785714286  Z M 59.0572916666667 47.5379464285714  C 60.0642361111111 47.9300595238095  61.171875 48.1261160714286  62.3802083333333 48.1261160714286  C 63.7395833333333 48.1261160714286  64.9227430555556 47.8954613095238  65.9296875 47.4341517857143  C 70.3098958333333 45.2890625  72.5 42.7633928571429  72.5 39.8571428571429  C 72.5 36.9508928571429  70.3098958333333 34.4252232142857  65.9296875 32.2801339285714  C 65.0234375 31.8418898809524  63.890625 31.6112351190476  62.53125 31.5881696428571  C 61.171875 31.5651041666667  60.0138888888889 31.7611607142857  59.0572916666667 32.1763392857143  C 58.1006944444444 32.5915178571429  57.5972222222222 33.1047247023809  57.546875 33.7159598214286  C 57.4965277777778 34.3271949404762  57.9496527777778 34.8634672619048  58.90625 35.3247767857143  C 61.5243055555556 36.6395089285714  62.8333333333333 38.1502976190476  62.8333333333333 39.8571428571429  C 62.8333333333333 41.5639880952381  61.5243055555556 43.0747767857143  58.90625 44.3895089285714  C 57.9496527777778 44.8508184523809  57.4965277777778 45.3870907738095  57.546875 45.9983258928571  C 57.5972222222222 46.6095610119048  58.1006944444444 47.1227678571429  59.0572916666667 47.5379464285714  Z " fill-rule="nonzero" fill="#7f7f7f" stroke="none" transform="matrix(1 0 0 1 206 327 )" />
  </g>
</svg>