<?xml version="1.0" encoding="utf-8"?>
<svg version="1.1" xmlns:xlink="http://www.w3.org/1999/xlink" width="36px" height="31px" xmlns="http://www.w3.org/2000/svg">
  <g transform="matrix(1 0 0 1 -230 -371 )">
    <path d="M 8.96484375 2.07877604166667  C 11.72265625 0.69292534722222  14.734375 0  18 0  C 21.265625 0  24.27734375 0.69292534722222  27.03515625 2.07877604166667  C 29.79296875 3.46462673611111  31.9765625 5.34494357638889  33.5859375 7.7197265625  C 35.1953125 10.0945095486111  36 12.6879340277778  36 15.5  C 36 18.3120659722222  35.1953125 20.9054904513889  33.5859375 23.2802734375  C 31.9765625 25.6550564236111  29.79296875 27.5353732638889  27.03515625 28.9212239583333  C 24.27734375 30.3070746527778  21.265625 31  18 31  C 14.734375 31  11.72265625 30.3070746527778  8.96484375 28.9212239583333  C 6.20703125 27.5353732638889  4.0234375 25.6550564236111  2.4140625 23.2802734375  C 0.8046875 20.9054904513889  0 18.3120659722222  0 15.5  C 0 12.6879340277778  0.8046875 10.0945095486111  2.4140625 7.7197265625  C 4.0234375 5.34494357638889  6.20703125 3.46462673611111  8.96484375 2.07877604166667  Z M 14.25 23.068359375  L 27 16.6100260416667  C 27.5 16.3678385416667  27.75 15.9978298611111  27.75 15.5  C 27.75 15.0021701388889  27.5 14.6321614583333  27 14.3899739583333  L 14.25 7.931640625  C 13.765625 7.67599826388889  13.265625 7.66927083333333  12.75 7.91145833333333  C 12.25 8.16710069444444  12 8.54383680555555  12 9.04166666666667  L 12 21.9583333333333  C 12 22.4561631944444  12.25 22.8328993055556  12.75 23.0885416666667  C 13 23.1961805555556  13.25 23.25  13.5 23.25  C 13.765625 23.25  14.015625 23.189453125  14.25 23.068359375  Z " fill-rule="nonzero" fill="#aaaaaa" stroke="none" transform="matrix(1 0 0 1 230 371 )" />
  </g>
</svg>