<?xml version="1.0" encoding="utf-8"?>
<svg version="1.1" xmlns:xlink="http://www.w3.org/1999/xlink" width="13px" height="15px" xmlns="http://www.w3.org/2000/svg">
  <g transform="matrix(1 0 0 1 -110 -81 )">
    <path d="M 12.7766323024055 0.901803607214428  C 12.9255441008018 1.00200400801603  13 1.11723446893787  13 1.24749498997996  C 13 1.37775551102204  12.9255441008018 1.49298597194389  12.7766323024055 1.59318637274549  L 3.99828178694158 7.5  L 12.7766323024055 13.4068136272545  C 12.9255441008018 13.5070140280561  13 13.622244488978  13 13.75250501002  C 13 13.8827655310621  12.9255441008018 13.997995991984  12.7766323024055 14.0981963927856  L 11.659793814433 14.8496993987976  C 11.5108820160367 14.9498997995992  11.3396334478809 15  11.1460481099656 15  C 10.9524627720504 15  10.7812142038946 14.9498997995992  10.6323024054983 14.8496993987976  L 0.223367697594502 7.84569138276553  C 0.0744558991981673 7.74549098196393  0 7.63026052104208  0 7.5  C 0 7.36973947895792  0.0744558991981673 7.25450901803607  0.223367697594502 7.15430861723447  L 10.6323024054983 0.150300601202405  C 10.7812142038946 0.0501002004008011  10.9524627720504 0  11.1460481099656 0  C 11.3396334478809 0  11.5108820160367 0.0501002004008011  11.659793814433 0.150300601202405  L 12.7766323024055 0.901803607214428  Z " fill-rule="nonzero" fill="#555555" stroke="none" transform="matrix(1 0 0 1 110 81 )" />
  </g>
</svg>