<?xml version="1.0" encoding="utf-8"?>
<svg version="1.1" xmlns:xlink="http://www.w3.org/1999/xlink" width="28px" height="23px" xmlns="http://www.w3.org/2000/svg">
  <g transform="matrix(1 0 0 1 -668 -657 )">
    <path d="M 6.97265625 1.54231770833333  C 9.11762152777778 0.514105902777776  11.4600694444444 0  14 0  C 16.5399305555556 0  18.8823784722222 0.514105902777776  21.02734375 1.54231770833333  C 23.1723090277778 2.57052951388889  24.8706597222222 3.96560329861111  26.1223958333333 5.7275390625  C 27.3741319444444 7.48947482638889  28 9.41362847222222  28 11.5  C 28 13.5863715277778  27.3741319444444 15.5105251736111  26.1223958333333 17.2724609375  C 24.8706597222222 19.0343967013889  23.1723090277778 20.4294704861111  21.02734375 21.4576822916667  C 18.8823784722222 22.4858940972222  16.5399305555556 23  14 23  C 11.4600694444444 23  9.11762152777778 22.4858940972222  6.97265625 21.4576822916667  C 4.82769097222222 20.4294704861111  3.12934027777778 19.0343967013889  1.87760416666667 17.2724609375  C 0.625868055555555 15.5105251736111  0 13.5863715277778  0 11.5  C 0 9.41362847222222  0.625868055555555 7.48947482638889  1.87760416666667 5.7275390625  C 3.12934027777778 3.96560329861111  4.82769097222222 2.57052951388889  6.97265625 1.54231770833333  Z M 11.0833333333333 17.115234375  L 21 12.3235677083333  C 21.3888888888889 12.1438802083333  21.5833333333333 11.8693576388889  21.5833333333333 11.5  C 21.5833333333333 11.1306423611111  21.3888888888889 10.8561197916667  21 10.6764322916667  L 11.0833333333333 5.884765625  C 10.7065972222222 5.69509548611111  10.3177083333333 5.69010416666667  9.91666666666667 5.86979166666667  C 9.52777777777778 6.05946180555555  9.33333333333333 6.33897569444444  9.33333333333333 6.70833333333333  L 9.33333333333333 16.2916666666667  C 9.33333333333333 16.6610243055556  9.52777777777778 16.9405381944444  9.91666666666667 17.1302083333333  C 10.1111111111111 17.2100694444444  10.3055555555556 17.25  10.5 17.25  C 10.7065972222222 17.25  10.9010416666667 17.205078125  11.0833333333333 17.115234375  Z " fill-rule="nonzero" fill="#aaaaaa" stroke="none" transform="matrix(1 0 0 1 668 657 )" />
  </g>
</svg>